<mxfile host="65bd71144e">
    <diagram id="ygFkDZHLJnuzZTnh9-o6" name="Page-1">
        <mxGraphModel dx="1130" dy="809" grid="1" gridSize="10" guides="1" tooltips="1" connect="1" arrows="1" fold="1" page="1" pageScale="1" pageWidth="850" pageHeight="1100" math="0" shadow="0">
            <root>
                <mxCell id="0"/>
                <mxCell id="1" parent="0"/>
                <mxCell id="3" value="" style="whiteSpace=wrap;html=1;aspect=fixed;" parent="1" vertex="1">
                    <mxGeometry x="90" y="120" width="660" height="660" as="geometry"/>
                </mxCell>
                <mxCell id="4" value="&lt;div style=&quot;&quot;&gt;&lt;span style=&quot;background-color: initial;&quot;&gt;HOME&lt;span style=&quot;white-space: pre;&quot;&gt;&#9;&lt;/span&gt;PROFILE&lt;span style=&quot;white-space: pre;&quot;&gt;&#9;&lt;/span&gt;&lt;span style=&quot;white-space: pre;&quot;&gt;&#9;&lt;/span&gt;&lt;span style=&quot;white-space: pre;&quot;&gt;&#9;&lt;/span&gt;&lt;span style=&quot;white-space: pre;&quot;&gt;&#9;&lt;/span&gt;&lt;span style=&quot;white-space: pre;&quot;&gt;&#9;&lt;/span&gt;&lt;span style=&quot;white-space: pre;&quot;&gt;&#9;&lt;/span&gt;&lt;span style=&quot;white-space: pre;&quot;&gt;&#9;&lt;/span&gt;&lt;span style=&quot;white-space: pre;&quot;&gt;&#9;&lt;/span&gt;&lt;span style=&quot;white-space: pre;&quot;&gt;&#9;&lt;/span&gt;&lt;span style=&quot;white-space: pre;&quot;&gt;&#9;&lt;/span&gt;&lt;span style=&quot;white-space: pre;&quot;&gt;&#9;&lt;/span&gt;&lt;span style=&quot;white-space: pre;&quot;&gt;&#9;&lt;span style=&quot;white-space: pre;&quot;&gt;&#9;&lt;/span&gt;&lt;span style=&quot;white-space: pre;&quot;&gt;&#9;&lt;/span&gt;&lt;span style=&quot;white-space: pre;&quot;&gt;&#9;&lt;/span&gt;L&lt;/span&gt;OG&lt;span style=&quot;white-space: pre;&quot;&gt;&#9;&lt;/span&gt;&lt;span style=&quot;white-space: pre;&quot;&gt;&#9;&lt;/span&gt;&lt;/span&gt;&lt;span style=&quot;background-color: initial;&quot;&gt;LOGOUT&lt;/span&gt;&lt;/div&gt;" style="rounded=0;whiteSpace=wrap;html=1;align=right;strokeColor=none;" parent="1" vertex="1">
                    <mxGeometry x="90" y="120" width="630" height="60" as="geometry"/>
                </mxCell>
                <mxCell id="5" value="FOOTER" style="rounded=0;whiteSpace=wrap;html=1;" parent="1" vertex="1">
                    <mxGeometry x="90" y="720" width="660" height="60" as="geometry"/>
                </mxCell>
                <mxCell id="10" value="" style="whiteSpace=wrap;html=1;aspect=fixed;" parent="1" vertex="1">
                    <mxGeometry x="230" y="260" width="390" height="390" as="geometry"/>
                </mxCell>
                <mxCell id="13" value="ADD NEW TENANT" style="rounded=1;whiteSpace=wrap;html=1;fillColor=none;strokeColor=none;" parent="1" vertex="1">
                    <mxGeometry x="273" y="270" width="305" height="60" as="geometry"/>
                </mxCell>
                <mxCell id="29" value="ADD TENANT" style="rounded=0;whiteSpace=wrap;html=1;fillColor=none;" parent="1" vertex="1">
                    <mxGeometry x="340" y="570" width="170" height="40" as="geometry"/>
                </mxCell>
                <mxCell id="39" value="NAME" style="rounded=0;whiteSpace=wrap;html=1;" parent="1" vertex="1">
                    <mxGeometry x="365" y="330" width="120" height="20" as="geometry"/>
                </mxCell>
                <mxCell id="41" value="SPECIES" style="rounded=0;whiteSpace=wrap;html=1;" parent="1" vertex="1">
                    <mxGeometry x="365.5" y="380" width="120" height="20" as="geometry"/>
                </mxCell>
                <mxCell id="43" value="MEDICINES" style="rounded=0;whiteSpace=wrap;html=1;" parent="1" vertex="1">
                    <mxGeometry x="365.5" y="430" width="120" height="20" as="geometry"/>
                </mxCell>
                <mxCell id="44" value="NOTES" style="rounded=0;whiteSpace=wrap;html=1;" parent="1" vertex="1">
                    <mxGeometry x="365" y="480" width="120" height="20" as="geometry"/>
                </mxCell>
            </root>
        </mxGraphModel>
    </diagram>
</mxfile>